<svg xmlns="http://www.w3.org/2000/svg" xmlns:xlink="http://www.w3.org/1999/xlink" version="1.1" x="0px" y="0px" viewBox="0 0 100 125" enable-background="new 0 0 100 100" xml:space="preserve"><path d="M74.289,58.16C73.425,33.687,53.753,9.433,53.753,9.433C41.246-5.098,31.317,29.21,31.317,29.21  c-16.98,49.485,5.787,61.66,5.787,61.66c0.362,0.141,0.697,0.26,1.045,0.389c-4.905-31.756,0.018-54.513,0.018-54.513  c-1.397,12.073,0.036,41.511,0.795,54.816c0,0,2.879,1.292,7.201,2.051c2.507,0.498,4.248,0.573,5.331,0.526  c1.818,0.039,3.746-0.068,5.727-0.405c2.671-0.359,4.957-1.11,6.905-2.167c5.38-11.212,5.653-30.733,5.653-30.733  c1.937,15.599-1.819,25.287-4.728,30.202C78.709,82.482,74.289,58.16,74.289,58.16z M61.5,65.333  C63,42.166,48.833,14.667,48.833,14.667C66.334,45.167,61.5,65.333,61.5,65.333z"/><text x="0" y="115" fill="#000000" font-size="5px" font-weight="bold" font-family="'Helvetica Neue', Helvetica, Arial-Unicode, Arial, Sans-serif">Created by Brand Mania</text><text x="0" y="120" fill="#000000" font-size="5px" font-weight="bold" font-family="'Helvetica Neue', Helvetica, Arial-Unicode, Arial, Sans-serif">from the Noun Project</text></svg>