<svg xmlns="http://www.w3.org/2000/svg" xmlns:xlink="http://www.w3.org/1999/xlink" version="1.1" x="0px" y="0px" viewBox="0 0 100 125" enable-background="new 0 0 100 100" xml:space="preserve"><path d="M82.344,5.914c0.151-0.361-0.05-0.691-0.441-0.725c-4.789-0.4-32.233-1.85-28.814,17.865  C69.439,34.541,80.52,10.276,82.344,5.914z"/><path d="M40.314,23.782c4.05,2.823,6.185,6.558,7.366,10.429c1.562,0.419,3.341,0.32,4.796-0.296  c-0.797-5.479-2.839-9.784-7.479-13.781c-0.771-0.663-1.448-0.664-2.306-0.116l-2.42,1.547  C39.084,22.324,39.158,22.977,40.314,23.782z"/><path d="M52.934,36.585c-1.678,1.011-4.19,1.011-5.868,0C27.249,24.636,5.981,40.916,14.772,65.811  c4.831,13.672,15.541,36.121,33.97,27.119c0.704-0.343,1.81-0.343,2.514,0c18.432,9.002,29.141-13.447,33.971-27.119  C94.018,40.916,72.75,24.636,52.934,36.585z"/><text x="0" y="115" fill="#000000" font-size="5px" font-weight="bold" font-family="'Helvetica Neue', Helvetica, Arial-Unicode, Arial, Sans-serif">Created by David</text><text x="0" y="120" fill="#000000" font-size="5px" font-weight="bold" font-family="'Helvetica Neue', Helvetica, Arial-Unicode, Arial, Sans-serif">from the Noun Project</text></svg>