<svg xmlns:dc="http://purl.org/dc/elements/1.1/" xmlns:cc="http://creativecommons.org/ns#" xmlns:rdf="http://www.w3.org/1999/02/22-rdf-syntax-ns#" xmlns:svg="http://www.w3.org/2000/svg" xmlns="http://www.w3.org/2000/svg" xmlns:sodipodi="http://sodipodi.sourceforge.net/DTD/sodipodi-0.dtd" xmlns:inkscape="http://www.inkscape.org/namespaces/inkscape" viewBox="0 0 8.4666665 10.583333625" version="1.1" x="0px" y="0px"><g transform="translate(0,-288.53333)"><path style="color:#000000;font-style:normal;font-variant:normal;font-weight:normal;font-stretch:normal;font-size:medium;line-height:normal;font-family:sans-serif;font-variant-ligatures:normal;font-variant-position:normal;font-variant-caps:normal;font-variant-numeric:normal;font-variant-alternates:normal;font-feature-settings:normal;text-indent:0;text-align:start;text-decoration:none;text-decoration-line:none;text-decoration-style:solid;text-decoration-color:#000000;letter-spacing:normal;word-spacing:normal;text-transform:none;writing-mode:lr-tb;direction:ltr;text-orientation:mixed;dominant-baseline:auto;baseline-shift:baseline;text-anchor:start;white-space:normal;shape-padding:0;clip-rule:nonzero;display:inline;overflow:visible;visibility:visible;opacity:1;isolation:auto;mix-blend-mode:normal;color-interpolation:sRGB;color-interpolation-filters:linearRGB;solid-color:#000000;solid-opacity:1;vector-effect:none;fill:#000000;fill-opacity:1;fill-rule:evenodd;stroke:none;stroke-width:2.07733107;stroke-linecap:round;stroke-linejoin:miter;stroke-miterlimit:4;stroke-dasharray:none;stroke-dashoffset:0;stroke-opacity:1;color-rendering:auto;image-rendering:auto;shape-rendering:auto;text-rendering:auto;enable-background:accumulate" d="m 15.980469,4.0390625 c 1.894539,0.00144 3.508281,1.3350668 3.867187,3.1953125 l 0.1875,0.9726562 0.980469,-0.1425781 c 0.113953,-0.015118 0.228633,-0.023564 0.34375,-0.027344 h 0.002 c 1.273875,0.00132 2.347737,0.9101542 2.5625,2.1660156 l 0.166016,0.974609 0.984375,-0.11914 c 0.09451,-0.01134 0.189935,-0.01953 0.285156,-0.01953 h 0.002 c 1.448387,0.0012 2.599421,1.152908 2.59961,2.601563 -0.0013,0.646753 -0.242207,1.269861 -0.677735,1.748047 l -0.427734,0.46875 0.222656,0.59375 c 0.108654,0.290646 0.163779,0.597866 0.164063,0.908203 -1.89e-4,1.449335 -1.152251,2.601374 -2.601563,2.601563 -0.98962,-8.7e-4 -1.887928,-0.559014 -2.328125,-1.445313 l -0.320312,-0.644531 -0.716797,0.07422 c -0.09092,0.01134 -0.18203,0.01563 -0.273438,0.01563 0,0 -0.002,0 -0.002,0 -0.405453,-9.08e-4 -0.806122,-0.08395 -1.177734,-0.246094 l -0.625,-0.273438 -0.498047,0.464844 c -0.727556,0.6768 -1.684133,1.052571 -2.677735,1.054688 -0.999151,-0.0022 -1.958697,-0.382917 -2.6875,-1.066407 l -0.503906,-0.472656 -0.630859,0.28125 C 11.821659,17.871692 11.413481,17.959804 11,17.960938 c -0.09206,-9.83e-4 -0.183816,-0.0081 -0.275391,-0.01563 L 10.007812,17.871094 9.6875,18.515625 C 9.2473026,19.401924 8.3489948,19.960068 7.359375,19.960938 5.910063,19.960749 4.7580011,18.80871 4.7578125,17.359375 c 2.857e-4,-0.310299 0.055409,-0.61752 0.1640625,-0.908203 l 0.2226562,-0.59375 -0.4277343,-0.46875 c -0.4359523,-0.478639 -0.6769256,-1.102605 -0.6777344,-1.75 0.00123,-1.447748 1.1518795,-2.598362 2.5996094,-2.59961 0.095871,0.0012 0.1919522,0.0082 0.2871093,0.01953 l 0.984375,0.121094 0.1660157,-0.976563 C 8.290936,8.9472636 9.3647972,8.0403853 10.638672,8.0390625 c 0.105086,0.00151 0.210316,0.00637 0.314453,0.021484 l 0.972656,0.1328125 0.1875,-0.9648438 c 0.36021,-1.857222 1.973623,-3.1883192 3.867188,-3.1894531 z" transform="matrix(0.26458333,0,0,0.26458333,0,288.53333)"/><path style="color:#000000;font-style:normal;font-variant:normal;font-weight:normal;font-stretch:normal;font-size:medium;line-height:normal;font-family:sans-serif;font-variant-ligatures:normal;font-variant-position:normal;font-variant-caps:normal;font-variant-numeric:normal;font-variant-alternates:normal;font-feature-settings:normal;text-indent:0;text-align:start;text-decoration:none;text-decoration-line:none;text-decoration-style:solid;text-decoration-color:#000000;letter-spacing:normal;word-spacing:normal;text-transform:none;writing-mode:lr-tb;direction:ltr;text-orientation:mixed;dominant-baseline:auto;baseline-shift:baseline;text-anchor:start;white-space:normal;shape-padding:0;clip-rule:nonzero;display:inline;overflow:visible;visibility:visible;opacity:1;isolation:auto;mix-blend-mode:normal;color-interpolation:sRGB;color-interpolation-filters:linearRGB;solid-color:#000000;solid-opacity:1;vector-effect:none;fill:#000000;fill-opacity:1;fill-rule:evenodd;stroke:none;stroke-width:2.07733107;stroke-linecap:round;stroke-linejoin:miter;stroke-miterlimit:4;stroke-dasharray:none;stroke-dashoffset:0;stroke-opacity:1;color-rendering:auto;image-rendering:auto;shape-rendering:auto;text-rendering:auto;enable-background:accumulate" d="m 12.402344,19.740234 c 0.01367,0.0102 0.02725,0.02105 0.04101,0.03125 l 0.578125,2.773438 A 1.0001,1.0001 0 0 0 15,22.341797 v -1.408203 c 0.332011,0.0662 0.671858,0.104726 1.017578,0.105468 h 0.002 0.002 C 16.35358,21.038671 16.680463,21.006297 17,20.945312 v 1.396485 a 1.0001,1.0001 0 0 0 1.980469,0.199219 l 0.55664,-2.728516 c 0.02786,-0.01996 0.05465,-0.04166 0.08203,-0.0625 0.45318,0.13365 0.904416,0.288314 1.378906,0.289062 0.120148,0.161755 0.249743,0.315648 0.384765,0.462891 C 19.600066,23.196306 17.742268,27.167066 17.367188,28 h -2.767579 l -3.992187,-7.488281 c 0.138488,-0.150278 0.271602,-0.307157 0.394531,-0.472657 0.482514,-9.67e-4 0.940556,-0.159736 1.400391,-0.298828 z" transform="matrix(0.26458333,0,0,0.26458333,0,288.53333)"/></g><text x="0" y="23.4666669" fill="#000000" font-size="5px" font-weight="bold" font-family="'Helvetica Neue', Helvetica, Arial-Unicode, Arial, Sans-serif">Created by bayu wibowo</text><text x="0" y="28.4666669" fill="#000000" font-size="5px" font-weight="bold" font-family="'Helvetica Neue', Helvetica, Arial-Unicode, Arial, Sans-serif">from the Noun Project</text></svg>