<svg xmlns="http://www.w3.org/2000/svg" xmlns:xlink="http://www.w3.org/1999/xlink" version="1.1" x="0px" y="0px" viewBox="0 0 100 125" style="enable-background:new 0 0 100 100;" xml:space="preserve"><path d="M90,29.9c-1-1.1-2.4-1.7-3.8-1.8l-9.9-0.4l5.3-4.9c2.2-2.1,2.4-5.5,0.3-7.8h0c-1-1.1-2.4-1.7-3.8-1.8  c-1.5-0.1-2.9,0.5-4,1.4l-10,9.2c-7.9-4.7-16.3-1.1-24.2,6.1l10.3,10.3l-2.4,2.4L37.5,32.4c-3.4,3.6-6.7,7.8-9.8,12.2l6.1,6.1  l-2.4,2.4l-5.6-5.6c-3.7,5.7-7.1,11.7-9.8,17l2.1,2.1l-2.4,2.4l-1.3-1.3C10.9,75,8.8,80.5,8.6,82c-0.2,1.9,0.2,3.2,0.9,3.9  c0.7,0.7,2,1.1,3.9,0.9c2.4-0.3,16.4-6.1,30.2-14.5l-2.7-2.7l2.4-2.4l3.2,3.2c3-1.9,6-4,8.7-6.1l-8-8l2.4-2.4l8.3,8.3  C69.4,52.8,77.1,42,71.8,31.9l1-0.9l13.3,0.6c0.6,0,1.1,0.3,1.4,0.7c0.4,0.4,0.6,0.9,0.5,1.5c0,0.6-0.3,1.1-0.7,1.4  c-0.4,0.4-0.9,0.6-1.5,0.5l-11.1-0.5l-0.1,3.4l11.1,0.5c0.1,0,0.2,0,0.2,0c1.4,0,2.7-0.5,3.7-1.5c1.1-1,1.7-2.4,1.8-3.8  C91.5,32.4,91,31,90,29.9z M76.4,17.2c0.8-0.8,2.2-0.7,3,0.1c0.8,0.8,0.7,2.2-0.1,3l-8,7.4c-1-1.2-2-2.2-3-3.1L76.4,17.2z"/><text x="0" y="115" fill="#000000" font-size="5px" font-weight="bold" font-family="'Helvetica Neue', Helvetica, Arial-Unicode, Arial, Sans-serif">Created by CHARIE Tristan</text><text x="0" y="120" fill="#000000" font-size="5px" font-weight="bold" font-family="'Helvetica Neue', Helvetica, Arial-Unicode, Arial, Sans-serif">from the Noun Project</text></svg>