<svg xmlns="http://www.w3.org/2000/svg" xmlns:xlink="http://www.w3.org/1999/xlink" version="1.1" x="0px" y="0px" viewBox="0 0 64 80" style="enable-background:new 0 0 64 64;" xml:space="preserve"><path class="Graphic_x0020_Style_x0020_2" d="M42,58c8.6,0,15.9-2.3,20.9-6.5C63.6,49.9,64,48,64,46c0-3-2-5-5-5  c-3.3,0-6,0.3-9,0.6c2.6-4,4-9,4-14.6c0-5-1.4-8.8-3.8-11.6C48.7,15.8,47,16,45,16c-5.8,0-10.2-3-12-7.8C31.5,8.1,29.9,8,28.3,8  c0.4-2.2,1.2-3.9,2.6-5.5c0.4,0.4,0.8,0.8,1.3,1.1C35.4,5.3,40.7,6,50,6v2c-7.2,0-12-0.4-15.5-1.4C35.9,11.4,40.1,14,45,14  c6,0,9-2,13-7c-3-2-6-7-11-7c-4.7,0-9.4,0.9-12.4,2.7c-1.1-0.6-2.1-1.4-2.8-2.3C31.6,0.2,31.4,0,31.1,0c-0.3,0-0.6,0.1-0.8,0.3  c-2.8,2.8-4,5.7-4.3,10.2c0,0.4,0,0.8,0,1.3c0,0.1,0,0.1,0,0.2h0c0,0.3,0,0.6,0,1c0.3,0,0.7,0,1,0c1.9,0,3.6,0,5.3-1.7l1.4,1.4  C31.4,15,29.1,15,27,15s-4.4,0-6.7-2.3l1.4-1.4c0.8,0.8,1.5,1.2,2.3,1.4c0-2,0-3.1,0.4-4.7C10.6,8.5,0,13,0,27  c0,12.4,6.3,21.5,18.8,24.2C18.3,49.6,18,47.9,18,46c0-4.1,2.9-7,7-7c3,0,5.4,0.2,8,0.5c2.7,0.3,5.4,0.5,9,0.5c1,0,2,0,2.9-0.1  c-0.6,0.7-1.2,1.4-1.8,2.1c-0.4,0-0.7,0-1.1,0c-7,0-11-1-17-1c-3,0-5,2-5,5c0,13,15.9,18,22,18c4.2,0,13.2-2.4,18.3-8.3  C55.3,58.5,49,60,42,60c-3.5,0-7.7-1.2-10.6-3.2l1.1-1.7C35.1,56.9,38.8,58,42,58z M51.6,45.5c0.1,0,0.2,0,0.3,0l1.1,3.3l-1.9,0.6  l-1.2-3.7C50.4,45.6,51,45.5,51.6,45.5z M47.5,27c0.8,0,1.5,0.7,1.5,1.5S48.3,30,47.5,30S46,29.3,46,28.5S46.7,27,47.5,27z   M47.4,45.8l0.6,4l-2,0.3l-0.6-4.2C46.1,45.9,46.8,45.9,47.4,45.8z M7,27H5c0-6.7,3.5-10.9,6.7-11.9l0.6,1.9C9.7,17.8,7,21.6,7,27z   M12.5,35c-0.8,0-1.5-0.7-1.5-1.5s0.7-1.5,1.5-1.5s1.5,0.7,1.5,1.5S13.3,35,12.5,35z M12.5,25c-0.8,0-1.5-0.7-1.5-1.5  s0.7-1.5,1.5-1.5s1.5,0.7,1.5,1.5S13.3,25,12.5,25z M17.5,30c-0.8,0-1.5-0.7-1.5-1.5s0.7-1.5,1.5-1.5s1.5,0.7,1.5,1.5  S18.3,30,17.5,30z M22.5,35c-0.8,0-1.5-0.7-1.5-1.5s0.7-1.5,1.5-1.5s1.5,0.7,1.5,1.5S23.3,35,22.5,35z M22.5,25  c-0.8,0-1.5-0.7-1.5-1.5s0.7-1.5,1.5-1.5s1.5,0.7,1.5,1.5S23.3,25,22.5,25z M27.5,30c-0.8,0-1.5-0.7-1.5-1.5s0.7-1.5,1.5-1.5  s1.5,0.7,1.5,1.5S28.3,30,27.5,30z M32.5,35c-0.8,0-1.5-0.7-1.5-1.5s0.7-1.5,1.5-1.5s1.5,0.7,1.5,1.5S33.3,35,32.5,35z M32.5,25  c-0.8,0-1.5-0.7-1.5-1.5s0.7-1.5,1.5-1.5s1.5,0.7,1.5,1.5S33.3,25,32.5,25z M37.5,30c-0.8,0-1.5-0.7-1.5-1.5s0.7-1.5,1.5-1.5  s1.5,0.7,1.5,1.5S38.3,30,37.5,30z M42.5,35c-0.8,0-1.5-0.7-1.5-1.5s0.7-1.5,1.5-1.5s1.5,0.7,1.5,1.5S43.3,35,42.5,35z M42.5,25  c-0.8,0-1.5-0.7-1.5-1.5s0.7-1.5,1.5-1.5s1.5,0.7,1.5,1.5S43.3,25,42.5,25z M41,46c0.3,0,0.7,0,1,0s0.7,0,1,0v8h-2V46z M36.6,45.8  c0.6,0,1.3,0.1,2,0.1L38,50.1l-2-0.3L36.6,45.8z"/><text x="0" y="79" fill="#000000" font-size="5px" font-weight="bold" font-family="'Helvetica Neue', Helvetica, Arial-Unicode, Arial, Sans-serif">Created by Denis Shumaylov</text><text x="0" y="84" fill="#000000" font-size="5px" font-weight="bold" font-family="'Helvetica Neue', Helvetica, Arial-Unicode, Arial, Sans-serif">from the Noun Project</text></svg>