<svg xmlns="http://www.w3.org/2000/svg" xmlns:xlink="http://www.w3.org/1999/xlink" version="1.1" x="0px" y="0px" viewBox="0 0 100 125" enable-background="new 0 0 100 100" xml:space="preserve"><g><g><path fill="#000000" d="M87.30469,63.66504c1.93359-1.28906,3.07715-2.89941,3.39844-4.78711    c0.35547-2.08594-0.34668-4.36914-2.0293-6.60449c-4.27051-5.66992-12.02637-6.97266-15.16309-7.26855    c-1.6416-0.15625-3.23828-0.22949-4.79688-0.23535c-0.21094-1.32422-1.43262-2.47168-2.65039-3.27051    c0-0.05469,0.01562-0.10742,0.00586-0.16309c-0.3877-2.32617-1.32324-3.86816-2.4873-4.92773    c-0.00098-0.13281-0.02734-0.26562-0.08398-0.39453c-3.22949-7.3291-12.82129-6.88184-16.7959-6.35059    c-11.80176,1.58008-22.19238,6.43555-29.25684,13.6709l-0.25977,0.26465c-1.51172,1.54297-3.58203,3.65625-4.08008,5.94043    c-0.04492,0.20605-1.06055,5.08301,1.35059,8.23535c0.21094,0.27539,0.38867,0.56934,0.5752,0.8584    c-1.66113,0.50293-2.62402-0.54199-2.74805-0.68652c-0.34668-0.4248-0.9707-0.49316-1.40039-0.14844    c-0.43066,0.3457-0.5,0.97461-0.1543,1.40625c0.53906,0.67188,1.77441,1.57031,3.43848,1.57031    c0.56738,0,1.18359-0.10645,1.83887-0.35938c0.02539,0.05762,0.06055,0.1123,0.08496,0.16992    c0.1582,0.37598,0.25586,0.73535,0.35938,1.11621c0.2168,0.79492,0.46191,1.69629,1.28711,2.56348    c1.00391,1.05469,2.15918,1.9707,3.43359,2.72461c2.89941,1.71777,6.18262,2.12305,9.01074,2.29395    c1.93457,0.11719,4.08789,0.21484,6.36914,0.21484c3.9502,0,8.28027-0.29199,12.50879-1.27441    c0.06152-0.01465,0.11035-0.05078,0.16602-0.0752c2.52148,4.04883,6.45703,8.40723,12.26172,10.125    c0.47266,0.20703,3.10254,1.29492,6.04004,1.29492c0.57617,0,1.16406-0.04199,1.75-0.14062    c0.90918,0.10156,5.30078,0.48242,9.14941-1.16895c0.03711-0.01367,0.07129-0.02539,0.10645-0.04297    c0.26367-0.11621,0.52441-0.24121,0.78125-0.37695c0.87695-0.30664,6.62695-2.63379,10.20215-11.98145    c0.19727-0.51562-0.06055-1.09375-0.57617-1.29102c-0.51562-0.19629-1.09277,0.06055-1.29102,0.57617    c-2.13086,5.56836-5.08594,8.38867-7.02637,9.72949c1.47949-3.5127,2.23926-7.95898,2.41113-9.05566    C84.52148,65.24902,85.97754,64.5498,87.30469,63.66504z M73.32324,46.99512c5.98145,0.56641,11.12305,2.98926,13.75293,6.48145    c1.34375,1.78418,1.91602,3.53613,1.65527,5.06543c-0.22461,1.32324-1.07812,2.4873-2.53613,3.45898    c-3.30957,2.20605-7.61719,3.19531-10.99902,3.81152c-4.37695,0.7959-8.76465,0.71387-13.41797-0.25293l-1.41113-0.28711    c-3.04785-0.61328-6.2002-1.24805-8.74121-2.55469c-2.25977-1.16113-4.00586-2.86035-4.91699-4.78418    c-0.56445-1.19238-1-3.00781,1.72461-5.00879c0.71387-0.52344,1.48438-0.99609,2.10352-1.375l0.4375-0.26953    c0.61816-0.38477,1.26172-0.73926,1.91797-1.07617c0.15527-0.03906,0.30176-0.10254,0.42285-0.20508    c1.4668-0.72363,3.01074-1.34082,4.63184-1.81934C62.44531,46.85449,67.61816,46.45605,73.32324,46.99512z M18.02734,60.06738    c-0.03223-0.08691-0.05566-0.16797-0.09277-0.25684c-0.07812-0.18555-0.16699-0.36816-0.25293-0.55176    c3.0293-1.07812,18.66992-6.61035,24.28711-7.86621c2.58594-0.57812,4.87793-0.87109,6.6709-1.01758    c-0.44824,0.2832-0.92188,0.59473-1.38965,0.9375v0.00098c-2.79102,2.04883-3.21777,4.23047-2.84375,6.0166    C37.51367,59.29688,21.01367,59.96191,18.02734,60.06738z M57.38184,46.26172c-1.75586,0.51758-3.42871,1.18848-5.01855,1.97656    c-1.2041-0.03027-5.35742-0.02344-10.83105,1.20312c-6.05176,1.35254-22.75488,7.30176-24.83789,8.0459    c-0.1543-0.2373-0.31738-0.46875-0.48535-0.69824c10.18066-8.52246,23.06836-12.1416,32.15527-13.66797    c2.65234-0.44531,5.46582-0.78418,8.36133-1.00684l0.78418-0.06348c1.95898-0.16309,3.9834-0.33203,5.77148,0.25391    c1.17578,0.38574,2.96191,1.58203,3.37793,2.50098C63.34277,44.93848,60.23633,45.41992,57.38184,46.26172z M15.06055,49.96289    c0.37402-1.71973,2.21191-3.59473,3.55371-4.96387l0.2627-0.26855c6.75293-6.91602,16.72949-11.56348,28.09082-13.08496    c2.99316-0.40234,9.55371-0.7627,13.1123,2.85645c-0.24805-0.07812-0.49414-0.15137-0.73535-0.21582    c-0.51562-0.1377-1.03516-0.25488-1.55957-0.35449c-6.79395-1.2832-13.5127,0.76465-19.18945,2.9375    c-0.7002,0.26758-1.4043,0.53223-2.1084,0.79785c-5.03711,1.89746-10.24512,3.8584-14.74609,7.10352    c-2.08008,1.49902-3.9707,3.10547-5.62012,4.77734c-0.3877,0.39258-0.38379,1.02637,0.00977,1.41406    C16.3252,51.1543,16.5791,51.25,16.83301,51.25c0.25781,0,0.5166-0.09961,0.71191-0.29785    c1.57031-1.5918,3.37598-3.125,5.36621-4.55859c4.28516-3.08984,9.36719-5.00391,14.28125-6.85449    c0.70801-0.2666,1.41406-0.5332,2.11816-0.80273c5.41406-2.07129,11.80078-4.02832,18.10254-2.83984    c0.47656,0.08984,0.94922,0.19727,1.41602,0.32129c2.36914,0.63281,4.13965,1.62695,4.95312,4.15332    c-2.13867-0.66797-4.42188-0.48242-6.43945-0.31348l-0.77051,0.0625c-2.95508,0.22754-5.82812,0.57324-8.53906,1.02832    c-9.23828,1.55176-22.31348,5.22559-32.78613,13.8457C14.49512,52.68262,15.05371,49.99512,15.06055,49.96289z M30.30273,67.28711    c-2.59082-0.15625-5.5791-0.51855-8.11328-2.01855c-1.11621-0.66016-2.12695-1.46191-3.00293-2.38281    c-0.25391-0.26758-0.41016-0.53906-0.53125-0.83887c4.19629-0.15527,19.68945-0.85059,26.45898-2.83691    c0.00293-0.00098,0.00586-0.00391,0.00879-0.00488c0.10352,0.19434,0.20801,0.3877,0.3252,0.57715    c0.00488,0.02246-0.00098,0.0459,0.00488,0.06836c0.07324,0.26367,0.88477,3.09863,2.73242,6.50977    C41.89453,67.75,35.33984,67.59277,30.30273,67.28711z M62.24707,76.42285c-0.04297-0.01953-0.08887-0.03613-0.13379-0.0498    c-6.96582-2.03418-11.07617-8.54883-13.11621-12.91309c0.54004,0.37598,1.10938,0.72559,1.71484,1.03711    c1.63477,0.84082,3.49316,1.42188,5.3623,1.88574c0.18945,1.10742,0.8291,4.20996,2.43457,6.99219    c0.18555,0.32031,0.52148,0.5,0.86719,0.5c0.16992,0,0.3418-0.04297,0.49902-0.13379    c0.47852-0.27637,0.64258-0.8877,0.36621-1.36621c-1.13965-1.97461-1.74512-4.1875-2.03125-5.50488    c0.59668,0.12598,1.1875,0.24707,1.7627,0.3623l1.39844,0.28516c2.68457,0.55762,5.28809,0.83594,7.85352,0.83594    c0.00781,0,0.0166,0,0.02441,0c-0.01074,1.70801-0.12598,6.73926-1.03418,9.18555    C65.25195,77.76172,62.28027,76.43848,62.24707,76.42285z M77.46973,76.48828c-2.64844,1.08301-5.65625,1.09766-7.14648,1.01562    c0.8252-2.94727,0.9209-7.625,0.92676-9.21582c1.44043-0.08301,2.87305-0.24805,4.30371-0.50879    c1.63086-0.29688,3.46973-0.68652,5.32812-1.24219C80.36719,69.35449,79.18652,74.25977,77.46973,76.48828z"/><path fill="#000000" d="M55.6582,54.2334c-0.67285,1.16113-0.80176,2.36719-0.37012,3.48926    c0.94043,2.44727,4.18262,3.65625,5.1543,3.96875c2.2793,0.73242,4.92871,1.11426,7.70801,1.11426    c0.27832,0,0.55859-0.00293,0.83984-0.01074c4.77246-0.12988,9.31445-1.72266,12.79004-4.4834    c0.43262-0.34375,0.50488-0.97266,0.16113-1.40527c-0.34277-0.43066-0.97266-0.50391-1.40527-0.16113    c-0.31543,0.25098-0.64746,0.48242-0.98145,0.71094c-0.06543-0.07129-0.12988-0.14258-0.21777-0.19434l-1.60449-0.9375    c-0.47852-0.27832-1.08984-0.11621-1.36816,0.3584c-0.27832,0.47754-0.11816,1.08984,0.3584,1.36816l0.92578,0.54102    c-0.26953,0.13867-0.54102,0.27539-0.81836,0.40234c-0.73633-0.29688-1.44629-0.75879-2.19629-1.25    c-0.38379-0.25098-0.76465-0.49902-1.14746-0.72461c-0.50391-0.29688-1.09082-0.63281-1.72363-0.97363    c1.19434-0.27832,2.62109-0.53906,3.53125-0.48535c1.93555,0.12109,5.48633,0.67188,5.52148,0.67773    c0.55762,0.08594,1.05762-0.28906,1.14258-0.83398c0.08496-0.5459-0.28809-1.05762-0.83398-1.14258    c-0.14941-0.02344-3.67773-0.57129-5.70508-0.69727c-1.4873-0.09766-3.70703,0.4082-5.00098,0.75    c0.53906-1.1084,0.91211-2.24316,1.0166-2.58203c0.01855-0.06055,0.01074-0.12109,0.01758-0.18164    c0.34375,0.03418,0.68555,0.07422,1.02637,0.12305l-0.06055,0.15723c-0.19629,0.51562,0.06152,1.09375,0.57812,1.29102    c0.11719,0.04492,0.2373,0.06543,0.35645,0.06543c0.40234,0,0.78223-0.24512,0.93457-0.64355l0.19141-0.5    c1.09668,0.25684,2.15918,0.5918,3.16309,1.01074c0.51074,0.21289,1.0957-0.02734,1.30762-0.53809    c0.21289-0.50977-0.02832-1.0957-0.53809-1.30762c-6.10645-2.54492-13.84277-2.38574-19.70996,0.4043    C57.3252,52.26855,56.27344,53.17383,55.6582,54.2334z M73.53906,59.41895c0.25879,0.16895,0.52246,0.33789,0.79004,0.50488    c-1.0459,0.3125-2.12695,0.54395-3.2334,0.6875c-0.00781-0.02832-0.00293-0.05664-0.01367-0.08496l-0.53418-1.4375    c-0.19141-0.51758-0.7666-0.78125-1.28613-0.58887c-0.51758,0.19238-0.78125,0.76855-0.58887,1.28613l0.37207,1.00195    c-0.03711,0.00098-0.07227,0.00586-0.10938,0.00684c-0.52539,0.01562-1.04004,0.00098-1.55469-0.0127    c0.33203-1.23633,0.32422-2.76953,0.27637-3.70215c0.30566-0.09668,0.60645-0.22168,0.88379-0.38281    c1.49023,0.64062,2.88086,1.42773,3.92969,2.04492C72.82715,58.95215,73.18164,59.18457,73.53906,59.41895z M59.56055,53.41992    c0.25586-0.12207,0.52051-0.23242,0.78516-0.34375c0.00098,0.00195,0.00195,0.00391,0.00293,0.00488l0.93555,0.9375    c0.19531,0.19629,0.45215,0.29395,0.70801,0.29395s0.51074-0.09766,0.70605-0.29199    c0.3916-0.39062,0.3916-1.02344,0.00195-1.41406l-0.26465-0.26465c0.77441-0.22559,1.57031-0.41113,2.38184-0.55273    l0.34375,1.49707c0.10645,0.46289,0.51758,0.77637,0.97363,0.77637c0.07422,0,0.14941-0.00781,0.22461-0.02539    c0.53809-0.12305,0.875-0.66016,0.75098-1.19824l-0.2998-1.30859c0.86719-0.07715,1.74219-0.11133,2.61621-0.09668    c-0.40723,1.22949-1.14453,2.94336-1.72266,3.41992c-0.59375,0.48926-1.96289,0.58398-2.69141,0.52441    c-0.53711-0.04297-1.03223,0.36719-1.07617,0.91699s0.36426,1.03125,0.91406,1.07715    c0.06934,0.00488,0.2793,0.02051,0.57617,0.02051c0.07324,0,0.1582-0.00293,0.24121-0.00488    c0.04004,1.11523-0.02539,2.5127-0.35254,3.25879c-0.58105-0.0625-1.14551-0.14648-1.7002-0.24707l0.53613-0.62012    c0.36133-0.41797,0.31641-1.04883-0.10156-1.41016s-1.04785-0.31738-1.41016,0.10156l-1.13574,1.3125    c-0.02832,0.0332-0.03809,0.07324-0.06055,0.10742c-0.12695-0.03711-0.26562-0.06348-0.38965-0.10352    c-0.38379-0.12305-0.74414-0.26855-1.08984-0.42383l0.33105-0.23242c0.45215-0.31641,0.56152-0.94043,0.24414-1.39258    c-0.31641-0.45117-0.93945-0.56348-1.39258-0.24414l-1.04395,0.73242c-0.45703-0.39355-0.78906-0.80957-0.94727-1.22168    c-0.06543-0.16895-0.09375-0.34277-0.10449-0.51758c0.08398,0.03027,0.16602,0.06543,0.25977,0.07227l1.7373,0.125    c0.02441,0.00195,0.04785,0.00293,0.07227,0.00293c0.51953,0,0.95898-0.40137,0.99609-0.92871    c0.04004-0.55078-0.37402-1.0293-0.92578-1.06836l-1.3125-0.09473C58.39258,54.05273,59.04199,53.66699,59.56055,53.41992z"/><path fill="#000000" d="M61.65234,57.64941c0.0918,0.02637,0.18359,0.03809,0.27441,0.03809    c0.43555,0,0.83594-0.28711,0.96094-0.72656l0.2666-0.9375c0.15137-0.53125-0.15723-1.08398-0.68848-1.23535    c-0.53418-0.15332-1.08398,0.15723-1.23535,0.68848l-0.2666,0.9375C60.8125,56.94531,61.12109,57.49805,61.65234,57.64941z"/></g></g><text x="0" y="115" fill="#000000" font-size="5px" font-weight="bold" font-family="'Helvetica Neue', Helvetica, Arial-Unicode, Arial, Sans-serif">Created by Yu luck</text><text x="0" y="120" fill="#000000" font-size="5px" font-weight="bold" font-family="'Helvetica Neue', Helvetica, Arial-Unicode, Arial, Sans-serif">from the Noun Project</text></svg>