<svg xmlns="http://www.w3.org/2000/svg" xmlns:xlink="http://www.w3.org/1999/xlink" xml:space="preserve" style="shape-rendering:geometricPrecision;text-rendering:geometricPrecision;image-rendering:optimizeQuality;" viewBox="0 0 6.82666 8.533325000000001" x="0px" y="0px" fill-rule="evenodd" clip-rule="evenodd"><defs><style type="text/css">
   
    .fil0 {fill:none}
    .fil2 {fill:black}
    .fil1 {fill:black;fill-rule:nonzero}
   
  </style></defs><rect class="fil0" width="6.82666" height="6.82666"/><g><g><g><polygon class="fil1" points="3.46667,5.44 3.46667,5.97333 3.36,5.97333 3.36,5.44 "/><polygon class="fil1" points="3.38048,5.465 3.13443,5.92688 3.04068,5.87688 3.28674,5.415 "/><polygon class="fil1" points="3.53993,5.415 3.78598,5.87687 3.69223,5.92687 3.44618,5.465 "/></g><path class="fil2" d="M3.41333 1.76667c1.23944,0 2.24421,0.831528 2.24421,1.85727 0,1.02574 -1.00476,1.85728 -2.24421,1.85728 -1.23944,0 -2.24421,-0.831531 -2.24421,-1.85728 0,-1.02574 1.00476,-1.85727 2.24421,-1.85727zm0.693173 0.464413c-0.0180354,-0.0125945 -0.042874,-0.00818898 -0.0554685,0.00984646 -0.0125945,0.0180354 -0.00818898,0.042874 0.00984646,0.0554685 0.203382,0.142102 0.367874,0.29935 0.492732,0.46648 0.189906,0.254197 0.287492,0.530909 0.290154,0.811421 0.00266535,0.280996 -0.0896929,0.566811 -0.279677,0.838724 -0.131496,0.188201 -0.310004,0.369941 -0.536421,0.539091 -0.017689,0.0132008 -0.0213268,0.038248 -0.00812598,0.055937 0.0132008,0.017689 0.038248,0.0213268 0.055937,0.00812598 0.232965,-0.174043 0.417331,-0.362031 0.553925,-0.557531 0.199768,-0.285913 0.296866,-0.587516 0.294047,-0.884969 -0.00282283,-0.297937 -0.105669,-0.590756 -0.305776,-0.85861 -0.129579,-0.173449 -0.300232,-0.336598 -0.511173,-0.483984zm-1.34073 0.065315c0.0180354,-0.0125945 0.0224409,-0.0374331 0.00984646,-0.0554685 -0.0125945,-0.0180354 -0.0374331,-0.0224409 -0.0554685,-0.00984646 -0.210941,0.147386 -0.381594,0.310535 -0.511173,0.483984 -0.200106,0.267854 -0.302953,0.560673 -0.305776,0.85861 -0.0028189,0.297453 0.0942795,0.599055 0.294047,0.884969 0.136594,0.1955 0.320961,0.383488 0.553925,0.557531 0.017689,0.0132008 0.0427362,0.00956299 0.055937,-0.00812598 0.0132008,-0.017689 0.00956299,-0.0427362 -0.00812598,-0.055937 -0.226417,-0.16915 -0.404925,-0.35089 -0.536421,-0.539091 -0.189984,-0.271913 -0.282343,-0.557728 -0.279677,-0.838724 0.00266142,-0.280512 0.100248,-0.557224 0.290154,-0.811421 0.124858,-0.16713 0.28935,-0.324378 0.492732,-0.46648zm0.803055 0.220717c-0.0176024,-0.0132008 -0.0425787,-0.00963386 -0.0557795,0.0079685 -0.0132008,0.0176024 -0.00963386,0.0425787 0.0079685,0.0557795 0.0905157,0.068126 0.169421,0.207642 0.226016,0.392724 0.0563858,0.18439 0.0896929,0.412705 0.0896929,0.660441 0,0.236874 -0.0304173,0.455906 -0.0823228,0.635732 -0.0524213,0.181622 -0.126169,0.322382 -0.211772,0.399449 -0.0163937,0.0147559 -0.0177244,0.0400157 -0.0029685,0.0564094 0.0147559,0.0163937 0.0400157,0.0177244 0.0564094,0.0029685 0.0965079,-0.0868858 0.178276,-0.240811 0.23489,-0.436953 0.0540748,-0.187343 0.0857638,-0.414008 0.0857638,-0.657606 0,-0.255071 -0.0347008,-0.491472 -0.0934409,-0.683567 -0.0614803,-0.201059 -0.150248,-0.354917 -0.254457,-0.433346zm-0.263197 0.063748c0.0176024,-0.0132008 0.0211693,-0.0381772 0.0079685,-0.0557795 -0.0132008,-0.0176024 -0.0381772,-0.0211693 -0.0557795,-0.0079685 -0.104209,0.0784291 -0.192976,0.232287 -0.254457,0.433346 -0.0587402,0.192094 -0.0934409,0.428496 -0.0934409,0.683567 0,0.243598 0.031689,0.47026 0.0857638,0.657602 0.0566181,0.196146 0.138386,0.350071 0.234894,0.436957 0.0163937,0.0147559 0.0416535,0.0134252 0.0564094,-0.0029685 0.0147559,-0.0163937 0.0134252,-0.0416535 -0.0029685,-0.0564094 -0.0856024,-0.0770669 -0.15935,-0.217827 -0.211776,-0.399453 -0.0519055,-0.179827 -0.0823228,-0.398854 -0.0823228,-0.635728 0,-0.247736 0.0333071,-0.476051 0.0896929,-0.660441 0.0565945,-0.185083 0.1355,-0.324598 0.226016,-0.392724z"/><path class="fil2" d="M3.03787 1.71196l-0.0348228 -0.58574 0.336898 0.367567 0.0570276 -0.640465 0.179752 0.462921 0.232531 -0.193488 0.0079685 0.593134c-0.131185,-0.0191614 -0.266126,-0.0292205 -0.403894,-0.0292205 -0.127846,0 -0.253224,0.00874016 -0.375461,0.0252913z"/></g></g><text x="0" y="21.82666" fill="#000000" font-size="5px" font-weight="bold" font-family="'Helvetica Neue', Helvetica, Arial-Unicode, Arial, Sans-serif">Created by Graphic Nehar</text><text x="0" y="26.82666" fill="#000000" font-size="5px" font-weight="bold" font-family="'Helvetica Neue', Helvetica, Arial-Unicode, Arial, Sans-serif">from the Noun Project</text></svg>