<svg xmlns="http://www.w3.org/2000/svg" xmlns:xlink="http://www.w3.org/1999/xlink" version="1.1" x="0px" y="0px" viewBox="0 0 50 62.5" enable-background="new 0 0 50 50" xml:space="preserve"><g><g><path d="M36.94337,31.79382c-0.0105,0.8609-0.68229,1.4801-1.4696,2.2044c-0.3779,0.3463-0.7663,0.7138-1.1231,1.1231    c-0.21,0.2205-0.6194,0.6299-1.2702,0.6299c-0.8922,0-1.4591-0.5879-3.8628-3.0755c-6.433-6.6526-10.3369-10.291-10.8539-10.8014    l4.6397-4.6712l13.4465,13.4151C36.86987,31.03811,36.95387,31.48942,36.94337,31.79382z"/></g><path d="M13.67808,6.67212l-3.09-4.53l-1.93,1.3201l3.83,5.63l2.68,2.13L13.67808,6.67212z M16.37808,14.84222l-12.88-10.1701   l-1.48,1.8101c9.66,7.63,12.61,9.97,15.73,12.4099L16.37808,14.84222z M1.74808,12.50222l-0.75,2.22l1.18,0.39   c0.07-0.27,0.1-1.83,1.35-1.59l2.65,0.47L1.74808,12.50222z M12.20808,17.21222l-8.02-1.45c-0.01,0.11-0.37,2.1299-0.4,2.31   l12.11,2.04C14.94808,19.36222,13.74808,18.42212,12.20808,17.21222z M17.26808,3.47222l-2.19,0.73l0.55,1.67   c1.23,3.71,2.54,7.64,3.93,11.8099l1.58-1.5699L17.26808,3.47222z"/><path d="M48.96227,43.37202c-0.1469,0.5458-0.70319,0.8922-1.2911,0.7347l-0.7453-0.1994   c-0.0314,0.0525-0.0629,0.0944-0.0945,0.1469l0.084,0.084c0.4094,0.4094,0.4094,1.0707,0,1.48   c-0.2099,0.21-0.47229,0.3149-0.7452,0.3149c-0.5039,0-0.6928-0.2939-0.7978-0.3673c-0.105,0.0734-0.2099,0.1364-0.3254,0.1995   l0.2099,0.7662c0.1575,0.5564-0.1784,1.1337-0.7347,1.2911c-0.5564,0.147-1.1337-0.1785-1.2912-0.7347l-0.14689-0.5564   c-0.34641,0.0629-0.68231,0.105-1.03921,0.105c-1.5431,0-2.9916-0.5983-4.0833-1.69c-2.0982-2.1184-1.2601-4.3707-3.38-7.4424   c0.4723-0.2099,0.9237-0.5459,1.3541-1.0077c0.8471-0.9983,2.0839-1.7321,2.7397-3.0755c2.85071,1.8485,5.5061,1.414,7.4423,3.3695   c1.3646,1.3646,1.8789,3.3169,1.5535,5.1435l0.5563,0.147C48.79437,42.23822,49.11977,42.81562,48.96227,43.37202z"/></g><text x="0" y="65" fill="#000000" font-size="5px" font-weight="bold" font-family="'Helvetica Neue', Helvetica, Arial-Unicode, Arial, Sans-serif">Created by Vectors Point</text><text x="0" y="70" fill="#000000" font-size="5px" font-weight="bold" font-family="'Helvetica Neue', Helvetica, Arial-Unicode, Arial, Sans-serif">from the Noun Project</text></svg>